# Alias OBJ Model File
# Exported from SketchUp, (c) 2000-2012 Trimble Navigation Limited
# File units = millimeters

mtllib door.mtl

g Mesh1 Model

usemtl FrontColor
v 50 0 -20
vt -1.9685 0.787402
vn 0 -1 -0
v 50 0 -0
vt -1.9685 0
v 0 0 -0
vt 0 0
v 0 0 -20
vt 0 0.787402
v 25 0 -20
vt -0.984252 0.787402
v 35 0 -20
vt -1.37795 0.787402
f 1/1/1 2/2/1 3/3/1 4/4/1 5/5/1 6/6/1 

usemtl M_0135_DarkGray
vn 1 0 -0
vt 0.787402 0
v 50 1980 -20
vt 0.787402 77.9528
v 50 1980 -1020
vt 40.1575 77.9528
v 50 2000 -1020
vt 40.1575 78.7402
v 50 2000 -0
vt 0 78.7402
f 2/3/2 1/7/2 7/8/2 8/9/2 9/10/2 10/11/2 

usemtl FrontColor
vt 1.37795 0
vn 0 0 1
vt 1.9685 0
vt 1.9685 77.9528
v 35 1980 -20
vt 1.37795 77.9528
f 6/12/3 1/13/3 7/14/3 11/15/3 

v 35 1980 -1020
vt 1.37795 40.1575
vn 1.44382e-14 1 -0
vt 1.37795 0.787402
vt 1.9685 0.787402
vt 1.9685 40.1575
f 12/16/4 11/17/4 7/18/4 8/19/4 

v 25 1980 -1020
vt 0.984252 40.1575
vn -1.44382e-14 1 -0
v 0 1980 -1020
vt 1.1255e-12 40.1575
v 0 1980 -20
vt 1.1255e-12 0.787402
v 25 1980 -20
vt 0.984252 0.787402
f 13/20/5 14/21/5 15/22/5 16/23/5 11/17/5 12/16/5 

vt 1.9685 78.7402
v 0 2000 -1020
vt 0 77.9528
vt 0.984252 77.9528
f 8/14/3 9/24/3 17/11/3 14/25/3 13/26/3 12/15/3 

usemtl M_0135_DarkGray
v 50 2000 -1040
vt 40.9449 78.7402
v 50 0 -1020
vt 40.1575 0
v 50 0 -1040
vt 40.9449 0
f 18/27/2 9/10/2 8/9/2 19/28/2 20/29/2 

vn 0 1 -0
vt 1.9685 40.9449
v 0 2000 -1040
vt 0 40.9449
vt 0 40.1575
f 9/19/6 18/30/6 21/31/6 17/32/6 

vn 0 0 -1
vt -1.9685 78.7402
v 0 0 -1040
f 21/11/7 18/33/7 20/2/7 22/3/7 

usemtl FrontColor
vt -1.9685 40.9449
vt -1.9685 40.1575
v 35 0 -1020
vt -1.37795 40.1575
v 25 0 -1020
vt -0.984252 40.1575
v 0 0 -1020
f 20/34/1 19/35/1 23/36/1 24/37/1 25/32/1 22/31/1 

vt -1.37795 0
vt -1.37795 77.9528
vt -1.9685 77.9528
f 23/38/7 12/39/7 8/40/7 19/2/7 

vt -0.984252 0
vt -0.984252 77.9528
f 24/41/7 25/3/7 14/25/7 13/42/7 12/39/7 23/38/7 

usemtl M_0135_DarkGray
vt -40.1575 78.7402
vn -1 0 -0
vt -40.9449 78.7402
vt -40.9449 0
vt -40.1575 0
vt -40.1575 77.9528
f 17/43/8 21/44/8 22/45/8 25/46/8 14/47/8 

vt -0.787402 0
v 0 2000 -0
vt -0.787402 77.9528
f 4/48/8 3/3/8 26/11/8 17/43/8 14/47/8 15/49/8 

f 3/3/3 2/13/3 10/24/3 26/11/3 

f 10/13/6 9/19/6 17/32/6 26/3/6 

usemtl FrontColor
vt 0.984252 0
f 16/26/3 15/25/3 4/3/3 5/50/3 6/12/3 11/15/3 

f 5/5/1 24/37/1 23/36/1 6/6/1 

usemtl M_0043_SaddleBrown
f 5/48/8 16/49/8 13/47/8 24/46/8 

v 35 909.614 -93.5723
vt 3.68395 35.8116
f 27/51/2 6/7/2 23/28/2

f 6/7/2 27/51/2 11/8/2

v 35 1066.61 -93.5723
vt 3.68395 41.9927
f 28/52/2 11/8/2 27/51/2

f 11/8/2 28/52/2 12/9/2

v 35 1066.61 -169.572
vt 6.67607 41.9927
f 12/9/2 28/52/2 29/53/2

vt 1.37795 6.67607
vt 1.37795 3.68395
v 36 1066.61 -93.5723
vt 1.41732 3.68395
v 36 1066.61 -169.572
vt 1.41732 6.67607
f 29/54/6 28/55/6 30/56/6 31/57/6 

vt 1.37795 41.9927
vt 1.37795 35.8116
v 36 909.614 -93.5723
vt 1.41732 35.8116
vt 1.41732 41.9927
f 28/58/3 27/59/3 32/60/3 30/61/3 

vt -1.37795 3.68395
v 35 909.614 -169.572
vt -1.37795 6.67607
v 36 909.614 -169.572
vt -1.41732 6.67607
vt -1.41732 3.68395
f 27/62/1 33/63/1 34/64/1 32/65/1 

vt 6.67607 35.8116
f 27/51/2 23/28/2 33/66/2

f 33/66/2 23/28/2 29/53/2

f 12/9/2 29/53/2 23/28/2

vt -1.37795 35.8116
vt -1.37795 41.9927
vt -1.41732 41.9927
vt -1.41732 35.8116
f 33/67/7 29/68/7 31/69/7 34/70/7 

usemtl M_0133_Gray
v 36 1017.93 -155.783
vt 6.1332 40.076
f 31/53/2 35/71/2 34/66/2

v 36 1017.93 -125.783
vt 4.9521 40.076
f 31/53/2 36/72/2 35/71/2

f 30/52/2 36/72/2 31/53/2

v 36 987.931 -125.783
vt 4.9521 38.8949
f 36/72/2 30/52/2 37/73/2

f 32/51/2 37/73/2 30/52/2

f 37/73/2 32/51/2 34/66/2

v 36 987.931 -155.783
vt 6.1332 38.8949
f 37/73/2 34/66/2 38/74/2

f 38/74/2 34/66/2 35/71/2

usemtl M_0038_Orange
vt -1.41732 40.076
v 65 1017.93 -155.783
vt -2.55906 40.076
v 65 987.931 -155.783
vt -2.55906 38.8949
vt -1.41732 38.8949
f 35/75/7 39/76/7 40/77/7 38/78/7 

vt 2.55906 6.1332
vt 1.41732 6.1332
vt 1.41732 4.9521
v 95 1017.93 -125.783
vt 3.74016 4.9521
v 95 1017.93 -275.783
vt 3.74016 10.8576
v 65 1017.93 -275.783
vt 2.55906 10.8576
f 39/79/6 35/80/6 36/81/6 41/82/6 42/83/6 43/84/6 

vt 3.74016 40.076
vt 1.41732 40.076
vt 1.41732 38.8949
v 95 987.931 -125.783
vt 3.74016 38.8949
f 41/85/3 36/86/3 37/87/3 44/88/3 

vt -3.74016 4.9521
vt -1.41732 4.9521
vt -1.41732 6.1332
vt -2.55906 6.1332
v 65 987.931 -275.783
vt -2.55906 10.8576
v 95 987.931 -275.783
vt -3.74016 10.8576
f 44/89/1 37/90/1 38/91/1 40/92/1 45/93/1 46/94/1 

vt -6.1332 38.8949
vt -6.1332 40.076
vt -10.8576 40.076
vt -10.8576 38.8949
f 40/95/8 39/96/8 43/97/8 45/98/8 

vt -3.74016 38.8949
vt -3.74016 40.076
f 46/99/7 45/77/7 43/76/7 42/100/7 

vt 10.8576 38.8949
vt 10.8576 40.076
f 44/73/2 46/101/2 42/102/2 41/72/2 

