# Alias OBJ Model File
# Exported from SketchUp, (c) 2000-2012 Trimble Navigation Limited
# File units = millimeters

mtllib trail.mtl

g Mesh1 Model

usemtl FrontColor
v 2200 0 -0
vt -86.6142 0
vn 0 -1 -0
v 0 0 -0
vt 0 0
v 0 0 -3000
vt 0 118.11
v 2200 0 -3000
vt -86.6142 118.11
f 1/1/1 2/2/1 3/3/1 4/4/1 

vn 0 0 1
vt 86.6142 0
v 2200 1 -0
vt 86.6142 0.0393701
v 15 1 -0
vt 0.590551 0.0393701
v 0 1 -0
vt 0 0.0393701
f 2/2/2 1/5/2 5/6/2 6/7/2 7/8/2 

vn 1 0 -0
vt 118.11 0
v 2200 1 -3000
vt 118.11 0.0393701
v 2200 1 -2801.73
vt 110.304 0.0393701
v 2200 1 -10
vt 0.393701 0.0393701
f 1/2/3 4/9/3 8/10/3 9/11/3 10/12/3 5/8/3 

v 2185 1.00085 -3000
vt -86.0237 0.0945384
vn -7.69027e-07 -0.000466809 -1
vt -86.6143 0.094505
vt -86.6143 0.0551349
v 15 0.998881 -3000
vt -0.590642 0.0944609
v 15 4.99888 -3000
vt -0.590642 0.251941
v 2185 5.00085 -3000
vt -86.0237 0.252019
f 11/13/4 8/14/4 4/15/4 12/16/4 13/17/4 14/18/4 

v 2200 27.9133 -2999.21
vt -86.6069 -2.36283
vn 6.67173e-05 0.0946243 -0.995513
vt -86.6067 -3.42286
vn 6.32667e-05 0.0293121 -0.99957
vt -86.0161 -3.42283
v 2185 5.00085 -2999.88
vt -86.0162 -3.26528
v 2185 27.9141 -2999.21
vt -86.0163 -2.3628
f 15/19/5 8/20/6 11/21/6 16/22/6 17/23/5 

v 2200.01 195.635 -2879.89
vt 113.387 7.70709
vn 1 -5.66567e-05 6.16329e-05
v 2200.01 205.206 -2854.72
vt 112.396 8.08387
v 2200 211.409 -2828.52
vt 111.364 8.32809
v 2200 214.139 -2801.73
vt 110.31 8.43559
vt 110.31 0.044277
vt 118.116 0.0442769
vt 118.085 1.10386
v 2200.01 54.4933 -2994.92
vt 117.915 2.15031
v 2200.01 80.2853 -2987.19
vt 117.611 3.16574
v 2200.01 104.848 -2976.16
vt 117.177 4.13278
v 2200.02 127.761 -2962.02
vt 116.62 5.03486
v 2200.02 148.632 -2945.01
vt 115.951 5.85657
v 2200.02 167.105 -2925.42
vt 115.179 6.58383
v 2200.01 182.862 -2903.59
vt 114.32 7.20421
f 18/24/7 19/25/7 20/26/7 21/27/7 9/28/7 8/29/7 15/30/7 22/31/7 23/32/7 24/33/7 25/34/7 26/35/7 27/36/7 28/37/7 

vt -86.5908 -102.197
vn 7.22528e-05 0.955945 -0.293545
vt -86.5907 -103.257
vn 7.71541e-05 0.909452 -0.415809
v 2185.01 195.636 -2879.89
vt -86.0002 -103.257
v 2185.01 205.206 -2854.72
vt -86.0003 -102.197
f 19/38/8 18/39/9 29/40/9 30/41/8 

vt -86.5957 -96.1694
vt -86.5956 -97.2295
vn 8.07353e-05 0.847397 -0.530959
v 2185.01 182.863 -2903.59
vt -86.0051 -97.2294
vt -86.0052 -96.1694
f 18/42/9 28/43/10 31/44/10 29/45/9 

vt -86.5987 -88.4891
vt -86.5986 -89.5492
vn 8.29351e-05 0.770844 -0.637025
v 2185.02 167.106 -2925.42
vt -86.0081 -89.5491
vt -86.0081 -88.4891
f 28/46/10 27/47/11 32/48/11 31/49/10 

vt -86.6007 -79.2866
vt -86.6007 -80.3466
vn 8.37159e-05 0.6811 -0.73219
v 2185.02 148.633 -2945.01
vt -86.0101 -80.3465
vt -86.0102 -79.2865
f 27/50/11 26/51/12 33/52/12 32/53/11 

vt -86.6023 -68.7188
vt -86.6022 -69.7789
vn 8.30643e-05 0.579704 -0.814827
v 2185.02 127.762 -2962.02
vt -86.0116 -69.7788
vt -86.0117 -68.7188
f 26/54/12 25/55/13 34/56/13 33/57/12 

vt -86.6035 -56.9666
vt -86.6034 -58.0266
vn 8.09914e-05 0.468388 -0.883523
v 2185.01 104.849 -2976.16
vt -86.0128 -58.0266
vt -86.013 -56.9665
f 25/58/13 24/59/14 35/60/14 34/61/13 

vt -86.6045 -44.2308
vt -86.6044 -45.2909
vn 7.75327e-05 0.349058 -0.937101
v 2185.01 80.2861 -2987.19
vt -86.0138 -45.2908
vt -86.014 -44.2308
f 24/62/14 23/63/15 36/64/15 35/65/14 

vt -86.6054 -30.7295
vt -86.6052 -31.7895
vn 7.27475e-05 0.223755 -0.974645
v 2185.01 54.4942 -2994.92
vt -86.0147 -31.7895
vt -86.0148 -30.7294
f 23/66/15 22/67/16 37/68/16 36/69/15 

vt -86.6062 -16.6934
vt -86.606 -17.7534
vt -86.0154 -17.7534
vt -86.0156 -16.6934
f 22/70/16 15/71/5 17/72/5 37/73/16 

vt -118.085 1.1039
vn -1 5.71436e-05 -6.24263e-05
vt -118.111 0.201799
v 2185 5 -2801.73
vt -110.31 0.201766
v 2185 214.139 -2801.73
vt -110.31 8.4356
v 2185 211.41 -2828.52
vt -111.364 8.32813
vt -112.396 8.08391
vt -113.387 7.70713
vt -114.32 7.20425
vt -115.179 6.58387
vt -115.951 5.85661
vt -116.62 5.0349
vt -117.177 4.13282
vt -117.611 3.16579
vt -117.915 2.15035
f 17/74/17 16/75/17 38/76/17 39/77/17 40/78/17 30/79/17 29/80/17 31/81/17 32/82/17 33/83/17 34/84/17 35/85/17 36/86/17 37/87/17 

vt 110.305 0.200487
vn 1 -4.2279e-05 8.58898e-07
v 2185 1 -2801.73
vt 110.305 0.0430071
vt 118.11 0.0430405
vt 118.106 0.200521
f 38/88/18 41/89/18 11/90/18 16/91/18 

vt -86.0236 0.0393701
vn 1.97222e-09 1.33589e-10 -1
vt -86.0236 0.19685
vt -86.0236 8.43068
vt -86.6142 8.43068
vt -86.6142 0.0393701
f 41/92/19 38/93/19 39/94/19 21/95/19 9/96/19 

vt -110.304 0.0393441
vn -1 -3.02488e-07 7.55168e-28
v 2185 1 -10
vt -0.393701 0.0393441
v 2185 5 -10
vt -0.393701 0.196824
vt -110.304 0.196824
f 41/97/20 42/98/20 43/99/20 38/100/20 

vt 86.6142 0.393701
vn 0 1 -0
vt 86.6142 110.304
vt 86.0236 110.304
vt 86.0236 0.393701
f 10/101/21 9/102/21 41/103/21 42/104/21 

v 2200 214.139 -10
vt 0.393701 8.43068
vt 110.304 8.43068
f 44/105/3 10/12/3 9/11/3 21/106/3 

v 2200 1 5
vt -0.19685 0.0393701
v 2200 214.139 5
vt -0.19685 8.43068
f 45/107/3 5/8/3 10/12/3 44/105/3 46/108/3 

vt -0.590551 0
vt -86.6142 -0.19685
v 0 1 5
vt 0 -0.19685
f 7/2/1 6/109/1 5/1/1 45/110/1 47/111/1 

v 0 1 -2801.73
vt 0 110.304
vt 0.590551 0
v 15 1 -10
vt 0.590551 0.393701
v 15 1 -2801.73
vt 0.590551 110.304
f 48/112/21 7/2/21 6/113/21 49/114/21 50/115/21 

vn -1 -1.62218e-15 5.93483e-19
vt -110.304 0.0393701
v -5.6391e-15 1 -3000
vt -118.11 0.0393701
vt -118.11 -1.13709e-31
f 7/8/22 48/116/22 51/117/22 3/118/22 2/2/22 

vn -1 0 -0
v 0 214.139 -0
vt 0 8.43068
v 0 214.139 -2801.73
vt -110.304 8.43068
f 48/116/23 7/8/23 52/119/23 53/120/23 

vt 0.19685 0.0393701
v 0 214.139 5
vt 0.19685 8.43068
f 52/119/23 7/8/23 47/121/23 54/122/23 

vn 0 0 -1
v 15 214.139 -0
vt -0.590551 8.43068
vt -0.590551 0.0393701
f 7/8/24 52/119/24 55/123/24 6/124/24 

vt 86.6142 -0.19685
v 2185 214.139 -10
v 15 214.139 -10
f 46/125/21 44/101/21 56/104/21 57/114/21 55/113/21 52/2/21 54/111/21 

f 44/101/21 21/102/21 39/103/21 56/104/21 

vt -86.5801 -108.908
vn 3.13069e-05 0.994847 -0.101391
vt -86.58 -109.968
vn 5.04276e-05 0.986084 -0.166249
vt -85.9894 -109.968
vt -85.9896 -108.908
f 21/126/25 20/127/26 40/128/26 39/129/25 

vt -86.5808 -106.471
vt -86.5807 -107.531
vt -85.9901 -107.531
vt -85.9903 -106.471
f 20/130/26 19/131/8 30/132/8 40/133/26 

vt -0.393701 8.43068
vn -1 2.78312e-09 1.08025e-20
vt -110.304 0.196851
vt -0.393701 0.196851
f 56/134/27 39/120/27 38/135/27 43/136/27 

vn -4.53603e-07 1 -3.33643e-08
vt 86.0236 118.106
vt 86.0236 118.11
vt 0.590551 118.11
v 15.0004 4.99888 -2999.88
vt 0.590569 118.106
v 15 5 -2801.73
v 15 5 -10
f 43/104/28 38/103/28 16/137/28 14/138/28 13/139/28 58/140/28 59/115/28 60/114/28 

vt 118.11 0.198951
vn 1 -2.40308e-05 4.90498e-07
vt 118.106 0.198951
vt 118.11 0.0414708
f 14/141/29 16/142/29 11/143/29

vt -118.11 0.196825
vn -1 3.17335e-05 -6.45277e-07
vt -118.11 0.0393447
vt -118.106 0.196825
f 13/144/30 12/145/30 58/146/30

vt 0.00984643 -3.4227
vn 8.33306e-05 0.0293121 -0.99957
v 0.00602517 27.9133 -2999.21
vt 0.00960663 -2.36267
vn 8.78747e-05 0.0946243 -0.995513
v 15.006 27.9122 -2999.21
vt -0.580945 -2.36271
vt -0.580723 -3.2652
vt -0.580705 -3.42275
f 51/147/31 61/148/32 62/149/32 58/150/31 12/151/31 

vt -118.079 1.09895
vn -1 7.46232e-05 -8.11773e-05
vt -118.11 0.0393694
vt -110.304 0.0393694
v 0.00602517 211.409 -2828.52
vt -111.359 8.32319
v 0.011102 205.206 -2854.72
vt -112.391 8.07896
v 0.0151437 195.635 -2879.89
vt -113.381 7.70218
v 0.0180811 182.862 -2903.59
vt -114.314 7.1993
v 0.0198638 167.105 -2925.42
vt -115.174 6.57892
v 0.0204615 148.632 -2945.01
vt -115.945 5.85166
v 0.0198638 127.761 -2962.02
vt -116.615 5.02995
v 0.0180811 104.848 -2976.16
vt -117.172 4.12787
v 0.0151437 80.2853 -2987.19
vt -117.606 3.16084
v 0.011102 54.4933 -2994.92
vt -117.91 2.14541
f 61/152/33 51/153/33 48/154/33 53/120/33 63/155/33 64/156/33 65/157/33 66/158/33 67/159/33 68/160/33 69/161/33 70/162/33 71/163/33 72/164/33 

vt -1.46897e-06 118.11
vn 3.73117e-05 1 -2.82283e-06
vt -1.46897e-06 110.304
vt 0.59055 110.304
vt 0.59055 118.11
f 51/165/34 48/166/34 50/167/34 12/168/34 

v 15 214.139 -2801.73
vt -0.588014 8.43041
vn 2.30039e-05 2.17902e-06 -1
vt -0.588014 0.19661
vt -0.588014 0.0391297
vt 0.00253743 0.0391297
vt 0.00253743 8.43044
f 73/169/35 59/170/35 50/171/35 48/172/35 53/173/35 

vt 110.304 8.43065
vn 1 -2.6392e-09 -7.25834e-12
vt 0.393701 0.19685
vt 110.304 0.19685
f 73/174/36 57/105/36 60/175/36 59/176/36 

vt -0.000179475 110.304
vn 2.12883e-05 1 -1.52236e-07
vt -0.000179475 -1.28345e-06
vt 0.590372 -1.28345e-06
vt 0.590372 0.3937
vt 0.590372 110.304
f 53/177/37 52/178/37 55/179/37 57/180/37 73/181/37 

vt -2.06325e-08 8.43068
vn 1 -1.57767e-09 -3.49377e-08
vt -2.06325e-08 0.0393701
f 55/182/38 6/183/38 49/12/38 60/175/38 57/105/38 

f 6/113/21 5/5/21 10/101/21 42/104/21 49/114/21 

f 44/95/19 10/96/19 42/92/19 43/93/19 56/94/19 

vn 4.46338e-28 -2.56131e-08 -1
vt -0.590551 0.19685
f 42/92/39 49/124/39 60/184/39 43/93/39 

vt 0.393701 0.0393699
vn 1 3.02488e-07 9.12962e-28
vt 110.304 0.0393699
f 49/185/40 50/186/40 59/176/40 60/175/40 

vt -118.106 0.196839
vn -1 5.57581e-05 -1.13054e-06
vt -118.11 0.0393589
vt -110.304 0.039403
vt -110.304 0.196883
f 58/187/41 12/188/41 50/189/41 59/190/41 

vt 110.304 8.4307
vn 1 -7.52635e-05 8.22219e-05
vt 110.304 0.196894
vt 118.106 0.19685
vt 118.079 1.09895
v 15.0111 54.4922 -2994.91
vt 117.91 2.14541
v 15.0151 80.2842 -2987.19
vt 117.606 3.16084
v 15.0181 104.847 -2976.16
vt 117.172 4.12787
v 15.0199 127.76 -2962.02
vt 116.615 5.02996
v 15.0205 148.631 -2945.01
vt 115.945 5.85166
v 15.0199 167.104 -2925.42
vt 115.174 6.57892
v 15.0181 182.861 -2903.59
vt 114.314 7.1993
v 15.0151 195.634 -2879.88
vt 113.381 7.70218
v 15.0111 205.204 -2854.72
vt 112.391 8.07896
v 15.006 211.408 -2828.52
vt 111.359 8.32319
f 73/191/42 59/192/42 58/193/42 62/194/42 74/195/42 75/196/42 76/197/42 77/198/42 78/199/42 79/200/42 80/201/42 81/202/42 82/203/42 83/204/42 

vt 0.0107721 -17.7525
vt 0.0105564 -16.6924
vn 9.58165e-05 0.223755 -0.974645
vt -0.579995 -16.6925
vt -0.579779 -17.7525
f 61/205/32 72/206/43 74/207/43 62/208/32 

vt 0.0117709 -31.7875
vt 0.0115803 -30.7275
vn 0.000102119 0.349058 -0.937101
vt -0.578971 -30.7276
vt -0.57878 -31.7876
f 72/209/43 71/210/44 75/211/44 74/212/43 

vt 0.0128911 -45.2878
vt 0.0127257 -44.2278
vn 0.000106675 0.468388 -0.883523
vt -0.577825 -44.2278
vt -0.57766 -45.2878
f 71/213/44 70/214/45 76/215/45 75/216/44 

vt 0.0141958 -58.0222
vt 0.0140548 -56.9622
vn 0.000109405 0.579704 -0.814827
vt -0.576496 -56.9622
vt -0.576355 -58.0223
f 70/217/45 69/218/46 77/219/46 76/220/45 

vt 0.0157766 -69.773
vt 0.015658 -68.7129
vn 0.000110263 0.6811 -0.73219
vt -0.574893 -68.713
vt -0.574775 -69.773
f 69/221/46 68/222/47 78/223/47 77/224/46 

vt 0.0177815 -80.3389
vt 0.0176814 -79.2789
vn 0.000109235 0.770844 -0.637025
vt -0.57287 -79.2789
vt -0.57277 -80.339
f 68/225/47 67/226/48 79/227/48 78/228/47 

vt 0.0204754 -89.5393
vt 0.0203869 -88.4793
vn 0.000106337 0.847397 -0.530959
vt -0.570164 -88.4794
vt -0.570076 -89.5394
f 67/229/48 66/230/49 80/231/49 79/232/48 

vt 0.0243973 -97.2168
vt 0.024308 -96.1567
vn 0.00010162 0.909452 -0.415809
vt -0.566243 -96.1568
vt -0.566154 -97.2169
f 66/233/49 65/234/50 81/235/50 80/236/49 

vt 0.0308574 -103.24
vt 0.0307417 -102.18
vn 9.51649e-05 0.955945 -0.293545
vt -0.559809 -102.18
vt -0.559694 -103.24
f 65/237/50 64/238/51 82/239/51 81/240/50 

vt 0.0441096 -107.506
vt 0.0439007 -106.446
vn 6.64192e-05 0.986082 -0.166261
vt -0.54665 -106.446
vt -0.546442 -107.506
f 64/241/51 63/242/52 83/243/52 82/244/51 

vt 0.045041 -109.941
vt 0.0448494 -108.881
vn 4.12356e-05 0.994844 -0.101416
vt -0.545702 -108.881
vt -0.54551 -109.941
f 63/245/52 53/246/53 73/247/53 83/248/52 

vn 1.78793e-20 2.3566e-10 -1
f 57/123/54 56/94/54 43/93/54 60/184/54 

vt 4.09573e-07 -0.0723165
vn 3.46772e-09 0.00061228 -1
vt 4.09573e-07 -0.0329464
vt -0.590551 -0.0329904
vt -86.6142 -0.0723165
f 3/249/55 51/250/55 12/251/55 4/252/55 

vt 86.6142 8.43068
f 45/6/2 46/253/2 54/119/2 47/8/2 

vt 86.6142 118.11
vn 2.83283e-05 1 2.14319e-06
f 8/254/56 11/138/56 41/103/56 9/102/56 

